<svg id="Layer_1" data-name="Layer 1" xmlns="http://www.w3.org/2000/svg" viewBox="0 0 186 170"><defs><style>.cls-1{fill:#fff;}</style></defs><title>Artboard 1</title><path class="cls-1" d="M41.64,61,39.82,33l-.8-.19.39-1.34-.5.41.13-.51,0-.82L38.65,32l0,.4-.32.56.09.59-.27.28.05.67.37.11-.54,2-.51.14v-.48l-.19.33.17.63.51-.41,0,1.09.24.14v.48l-.26-.2L38,40l-.21.74.08.8-.31.09.07.79-.33.3v-1l.37-1.39,0-.68-.34,1.26L37,40.42v1l-.64.17.08,1.28.26.2.09.87-.37.37.4.23-.14.73-.51,4.44.25-.07-.14,1.74-.37.92,0,1,.23.07-.55.49-.35,1.74.16,1.86L35,60l-.88.79.07.52-.82.23-.49-.28-.2.26,0,.4-.37-.11-.22.47.05.67-1.47.4-.27.48-.6.57-1.85,1-.66.59-1.15.31-1-1L18.3,47.67l-.48,3.75L18,52.48v6l-.22,1.22,0,2.13-.34,3.3-.25.34.4.23L17,67l.33.19-.7,1.21-.08.7-.61.78-.29.7-.7.19-.12.3L13.68,72l.06-.29-.65,1.13-.26-.2-.47,1L11.15,74l-1,1.49-.89.24-.62,1.47-1-.35-.61-1-1.3-8.59-.3-4.91L6.62,33.76l2.87-11.1L10.67,21l3-1.08,1.9,0,3.62-.5.71.83,1.5.76L22,22l1.6,4.14-.05.36,2.3,7L26,34.54l.42.29-.19.53.44-.12-.22.95.45-.12.08.32.5.82,0,.61.12.17.33,1.21,2.46-9.34,2.25-5.8,2.48-5,2.9-4.2,1.35-1.05.32-.09.55.53.41-.4.13-.15.53.08.55-.05.4.39.37-.37.37.37.2-.05-.59.84.11.18.47-.54.06-.29.57.33.82-.23.25.14h0l.3.12,1-.25,2.77.13.1.39.66.91.56.33,0,1.63-.14.24.26.2.19,1,.09,1.34-.25.07.32,1.21L51,26l-.2.26.5.34-.57,1.18.33-.29,0,.6-.32.57.42.57-.11.58-.25-.14L50.53,31l.25,1.44.42-1,0-.61.18-.32.31,1.14-.43.67.24.13.23.08-.66.59.45.42.1.38-.31.09.34.52V35l.24.14-.41.52-.2,1-.76.75.45-.12.16-.18.25-.07v.55l-.18.32,0,.42-.12.3,0,.61.56-1.45.11-.85.06,1.22-.12.3.27.27-.41,1,.07.25.31-.36-.35.71.07.26.31-.36-.28,1.24.54-1,0,.68-.55.76.18.15-.16.93.39-.31-.14,1,.26.68.24.14-.59.36L52,47.15l.15-.72.33-.3-.14.52.18.15-.32.57.22.08.12,1.95-.72,2.38-.7.19-.46.32-.18-.15-.38.1.39.92.24.14-.68.53-.28-.27-.41,1-.4.52.44-.12-.82,2,.76-.21.27-.76.81-1,.14-.51.63-.17,0-1.7.5-.41.06.47.36-.92.22.28.31-1.11.1.86-1,1.56,0,.33-.24.34.29.33-.26.55.36.32L52.19,54l0-.61.59-.84.09,1.07-.34.5-.16.93-.61.78v.48l-.07.23-.35,1-.89.24.4-.79.23.35-.1-.87-.91.93.24.14-.18.33,0,.4-.37.91v1l-.64.18.25-.34-.15-1.06-.8,1.31.26.21-.49.74-.57.16-.73,1.08-.44.12,0,.36-.34-.25-.3.9-.83.22L44.24,65l-.63.17L43,66.87l-.72.88,0,.4-.36.91-.47-2.74Zm-5.92-2.7,0-.4.23-1.15L36,58.86l-.52,1.37-.13-1Zm.3-4.18,0,.67-.17.39,0-.82Zm1.33-10.74-.14.24,0-.42Zm-2.1-8.52.09-.91L35,34.2Zm2.4,4.34-.09-.86.22-.68-.25.07-.49,1,.32.19,0,.41Zm-.87-8.78.23.07-.22-.55Zm1.78,5.32.32-.08.13,1-.37-.1Zm7.6,22.54,0-.4-.34.5Zm.28,1,.4-.51v-.28Zm.37-1.39.14-.25.16-2.43-1,.47h.69l-.15.73-.13.24.16.36Zm.79,1.9.57-.15.13.23L48.08,59Zm.15-1.95.41-.52.26-1.3-.45.87,0,.29Zm-.85-3.67.28-.48-.07-.26-.19.33Zm.27-1.78,0-.6L47,51.52l0,.61Zm.3.6.25-.06.18.15-.25-.41Zm1.35,4.76v-.21l-.17-.15ZM47,49.6l.15-.72L47,48.53Zm-.09-3.87,0-1.09-.39.31.1.87Zm1.43,4.53,0-.34-.26-.2,0-.41-.45.12.18.15.06.47Zm-1.86-6.12,0-.88-.23.68ZM47.61,49l.51-.13.3-1.45-.83,1.25Zm3.75,9.58-.45.6.06-.29ZM51.22,56l.26-1.57-.39.58-.26.07-.33.29.25.14-.22.47-.33.29.07.26Zm-1.73-3.36.48-1-.52.34Zm1.28,1-.61.78-.22-.07ZM46.66,41.64l-.06-1.21-.26-.21Zm3.18,9.73-.06-1.22-.45.12,0,.4.25.14Zm-.31-1.63.32-.08,0-1.09.2-.26-.57.15Zm-.62-3,.45-.12,0-.4Zm.15-.72.55-.77-.08-1.27-.42-.3-.22.2.11.92-.26.28Zm1.84,4.76.45-.6-.78.41Zm0,1,.45.15-.49-.55ZM48.81,43l.25-1.37-.32.09-.33.57.22.55Zm1.58,4.56.29-.42-.42-1-.58.36.42.3Zm.34,1,.37-.38-.26-.47Zm.45,1.17-.06-.46-.14.24Zm.2,1,.25-.07.16-.18Zm-4.86-19,0-.4-.21.27Zm2.17,8.3.2-.26-.14-1.54-.13.52ZM50,44.49l.45-.12-.15-1.06.34-.77-.33.29,0-.4.2-.26-.45.12L50,42l.28-.21,0-.67-.39.58Zm.21.76L50.5,45l-.31-.12Zm1.51,4.58.45-.6.18-1.62-.5.41.26.2-.73,1.36ZM48.3,37.37l.1-.91.28-.49-.61.78Zm2.94,11.09.44-.12-.14-1.26-.13.24Zm-.52-2.66.19-.8.49.28.14-2.77-.46.6L51,44.23l.34.25L50.7,45Zm-.95-4.52L50,41l-.26-.21ZM49.44,39l.64-.17L50,37.53l.16-.66-.35-.79-.26,1.57-.14.24.38.38Zm2.07,7.16.16-.93-.19.32Zm-5.28-21,0-.42-.39.31Zm1.84,5.78.18-2.09-.5.68,0,.67-.46.33h.48Zm.11,1.68.43.09,0-.88Zm2.21,7.67.07-.5,0-.67-.27.55Zm-1-4.3.45-.12-.18-.16Zm0-1.5-.11-.39-.14.25Zm1.72,5.34.51.13-.3-.6Zm-1.4-6.93-.09-1.07-.41.72Zm1,3.62.2-.53-.11-.38-.34.5Zm-1.79-8.87,0-.4-.2.26Zm-1.64-5.57.42-.72-.45.12Zm1.38,5.1.39-.59,0-.67-.2.26v.27l-.16.45Zm-.12-1.95.39-.59-.38.11ZM49.86,30l.36-.44,0-.67-.34.51ZM48,21.06l.24.14,0-.88Zm2.15,7.21,0-.95-.25.34Zm-.5-3.63.33.19-.34-1Z"/><path class="cls-1" d="M56.63,61.07,57.11,23l1.16-8.37.28-1-1-.62-.22-.83.28-1,4-3.06,4.3-2.53,5.54-1.49h5l3.29.55,3.8,1.16,4.32,2.86.93.91.53.19.07.26,1,.81.12.45.76,1,.59,2.44.37.1-.31.63.14.78-.28.49.14.51-1.68,3.87L88.54,23l-.73,1.09-.83,1-.21.47-.51.14-.34.5-.54.28-1.29,1.79-.52-.14-1.15,1.82-.13-.51L80.81,31l-1.34.85.1.38-.76.2-.09.44-.24-.14-.59.36-.68,1L76.78,34l-.72.4,0-.4-.66.59,5.27,4.31,2.22,1.38,10.51,7.81,1.44,1.53.1.38-.12.3-.07-.25-.88,0-.53.56-.42-.3-.24.4-.59-.18-.33.3-.43-.09.15.57L91,51.5l-.16-.57-.45.6-.07-.25-.63,0-.41.73-2.68.72-1-.35L74.44,44.85l-4.84-4-.23,13.31L69,58l-.56.69-.76.48-1.45,1.21-2.92.8L62.42,61l-1.4.38L60,61.47l-.71.4-.28.49-.71-.09-.8.08Zm13-33.83,3.07-2.54,7.56-7.65L81,14.88l-.38-1.67-.55-1-1.47-1.38-3-1L74,10l-3.25,1.35-.5.69.53.67.47,2-1,3.89L70,21.26l-.2.26-.39,4.89Zm6.84,6.61.18-.11-.26-.2Z"/><path class="cls-1" d="M67.26,75.37l.58-.18.53-1-.66-.2-.79-1.4-.06.15,0,0-.11,0L66,71l-.35-.38.12-.4-3-1.61-4-.18L55.43,69l-3,3.06-2.31,4.14L47.37,83l-4,11.1-1.88,4.68L34.39,88.9l-4.72-6.75c-.67-1.21-1.91-3.27-2.76-3.43a1.32,1.32,0,0,0-.41,0,10.11,10.11,0,0,0-2.16.46c-.36.1-.69.2-.94.25a18.22,18.22,0,0,0-2.83,1.21c-.92.43-1.87.89-2.38,1.06a4.74,4.74,0,0,0-2.75,1.91l-.51.64.18.73L15.19,86a3.18,3.18,0,0,0,.55,2.9c.92,1.51,6.47,10.1,6.7,10.45l13.33,17.21L36.85,118l1.84,25.54.81,3.81.62.82,5.37-.92.1-.1.38-.43.69-.2.35-.66.83-.25.33,1.79L49,145.5l1.23-.37,1.79-.28.45-.32.57.31,1.55-.47-.29-.93.68-1.4-.18-.6.66-.75-2-16.76.24-1.78-.14-.71-.16-3.38.41-1.61-.41-2L56,105.24,60.62,91l4.15-8.72.12-.32.24.14,1.55-2.58L67.79,78l.13-.5-.5-.27Z"/><path class="cls-1" d="M91.65,127.78l-2.29.26L85,129.67l-2-.53-3-1.92-2.59-3.56-4-9.34-2.12-11.85-.42-16.29.84-9.65,1.28-5,1.69-4.81,1-.91,5.69,1.27L85.8,70l2.59,5.2-.34,2.44-.32,1.18.17,1-.2,10.66.65,8.07-.2,1,.31,1.82.17,3,2.13,8.57.44.61,2.39-5.9,4.18-17.72,1.56-19.37-.1-1.06L98.5,68l-.39-4.79,0-1.8,1.08-2,.3.1v.36L100.6,59l.55,0,.8,0,.35.27h0l.45.33.15.86.54-1.16.93-.17.84.36.11-.13.43.64-.37.33-.45-.05,1.13,1.14,1.18-.32.55,1,.58.48-.13-.69.63.19.46,2.69.93-.25.39-1.29.3.35-.06.59,1-.78-.15.35.07.62.33.18.5-.71.29,0,.64.37,0,.44.48.42.29,1.73.59.2.89,1.94-.33,1.45-.08,2.74-.17,1,.2,2.39-.3,7-.9,6-.26.7.09.34-1,6.34-.76,3.56-.2,2-1,2.08-.31,1.17-.41.84-1,3.79-4.84,10.92-1.59,2.15-.34.1-.83,1.31-1.15.76-4.91,1.6-2.5.14Zm9.42-67.36.25-.42-1-.2.11.42Zm3-.18.12-.44-.78,0Z"/><path class="cls-1" d="M166.71,99.44,164.3,62.38l-1.06-.26.51-1.77-.66.55.17-.69,0-1.08L162.75,61l.05.53-.43.75.12.78-.35.37.06.89.49.14L162,67.18l-.68.18v-.63l-.25.42.23.85.67-.54,0,1.44.32.18v.64l-.34-.27-.07,2.1-.28,1,.11,1.06-.43.12.11,1.06-.44.39V73.8l.49-1.86-.06-.89-.45,1.67-.33-.55v1.36l-.84.23.09,1.69.35.27.13,1.15-.5.5.53.3-.19,1-.67,5.89.34-.09-.19,2.32L159.17,88l.07,1.25.29.1-.72.65-.47,2.3.22,2.48-.72,3.37-1.17,1,.1.7-1.1.3-.65-.37-.26.34.05.53-.49-.14-.29.62.06.89-1.94.53-.37.64L151,104l-2.46,1.3-.88.78-1.52.41-1.28-1.37-9.1-23.28-.65,5,.2,1.39,0,8L135,97.77l-.05,2.83-.45,4.38-.33.45.54.31-.63,1.71.43.24-.92,1.61-.11.94-.81,1-.38.92-.93.26-.16.4-1.57,1.24.07-.38-.86,1.5-.34-.27-.63,1.35-1.61.44-1.28,2-1.18.32-.83,2-1.31-.46-.81-1.33-1.72-11.4-.4-6.51,1.52-37.94,3.81-14.72,1.57-2.23,4-1.44,2.53,0,4.8-.66.94,1.1,2,1,.83,1.4,2.13,5.5-.06.47,3,9.24.12,1.42.56.39-.27.71.59-.16-.29,1.25.59-.16.12.43.65,1.09,0,.8L148,69l.44,1.61,3.26-12.4,3-7.69,3.29-6.6,3.84-5.58,1.79-1.39.43-.11.73.7.31-.87.4.14.41-.55.94.18.61.93.5-.5.77.19,0,.24L168,38.37l.15.23.63-.71.07-.39.75.43,1.1-.29.33,0v.15l.41.16,1.27-.34,3.67.18.14.51.87,1.22.75.43,0,2.16-.18.32.34.27.26,1.29.12,1.78-.34.1.44,1.6.42,5.59-.27.35.67.45-.75,1.57.43-.39,0,.8-.43.75.57.76-.16.76L179,58l-.46,1.66.34,1.91.54-1.33,0-.8.24-.43.42,1.52-.58.88.32.18.3.1-.88.78.61.56.13.51-.42.12.46.69v.63l.32.19-.53.69-.28,1.34-1,1,.6-.16.2-.24.34-.09,0,.72-.25.43,0,.55-.17.41,0,.8.75-1.92.15-1.13.07,1.61-.16.41.37.35-.55,1.33.09.34.42-.48-.47,1,.09.33.41-.47L180,73.54l.72-1.37.06.89-.73,1,.24.21-.21,1.23.52-.41-.18,1.32.33.9.33.19-.78.48.21,3.12.19-1,.44-.39-.18.68.24.21-.43.75.3.1.15,2.59-1,3.16-.92.25-.61.43-.24-.2-.51.13.52,1.22.32.19-.9.7-.37-.36L177,90.94l-.54.69.6-.16L176,94.12l1-.27.37-1,1.07-1.38.18-.68.85-.23-.07-2.25.67-.54.08.61.48-1.22.29.38.41-1.47.13,1.14-1.25,2.06,0,.45-.33.45.39.44-.35.73.47.41.31-1.53,0-.81.78-1.12.11,1.42-.45.67-.21,1.24-.81,1v.64l-.1.3-.46,1.3-1.18.32.53-1,.31.46-.13-1.14-1.21,1.23.32.18-.24.43,0,.53-.49,1.22,0,1.28-.84.23.33-.46-.2-1.39-1.07,1.74.35.27-.64,1-.76.21-1,1.44-.59.16L173,102l-.45-.33-.4,1.19-1.1.3-.9,1.69-.84.23-.77,2.2-.95,1.17,0,.53-.49,1.22-.62-3.64Zm-7.86-3.59,0-.53.31-1.53.14,2.86-.69,1.82-.17-1.32Zm.41-5.55.06.89-.23.52,0-1.09ZM161,76.05l-.18.32,0-.55Zm-2.78-11.3.12-1.22-.44.39Zm3.18,5.75-.12-1.14.3-.9-.34.09-.66,1.27.43.24,0,.55Zm-1.15-11.65.29.1-.28-.74Zm2.36,7.06.42-.11.18,1.31-.49-.14Zm10.08,29.91-.05-.53-.45.66Zm.37,1.35.54-.69v-.36Zm.49-1.86.19-.32.21-3.23-1.28.62.91,0-.19,1-.19.33.23.48Zm1.05,2.53.76-.21.18.32-.3-1.1Zm.2-2.59.54-.69.35-1.73L175.12,94l-.08.38Zm-1.13-4.86.37-.65L174,89.4l-.25.43Zm.36-2.37,0-.8-.17-.32,0,.81Zm.4.8.33-.09.24.21-.33-.55Zm1.79,6.31,0-.27-.24-.21Zm-2.37-10.78.2-.95-.31-.46Zm-.12-5.13,0-1.44-.53.41.13,1.14Zm1.9,6,0-.44-.34-.27,0-.55-.59.16.24.2L175,85Zm-2.47-8.12,0-1.17-.3.9Zm1.46,6.4.68-.18.39-1.92-1.1,1.66Zm5,12.7-.6.8.08-.38Zm-.19-3.39.34-2.08-.52.77-.33.09-.44.39.32.19-.29.62-.43.39.09.34Zm-2.3-4.45.64-1.35-.7.46Zm1.7,1.26-.8,1-.3-.1Zm-5.46-15.84-.07-1.61-.35-.27Zm4.22,12.91-.07-1.61-.59.16,0,.53.32.19Zm-.4-2.15.42-.12,0-1.44.27-.35-.76.21Zm-.82-4,.59-.16-.05-.53Zm.19-1,.72-1-.09-1.7-.56-.39-.29.26.15,1.23-.36.37ZM179,85.87l.6-.8-1,.55Zm0,1.36.6.2L179,86.7Zm-2.77-11.58.33-1.81-.42.11-.44.75.29.74Zm2.09,6,.39-.56-.55-1.39-.78.48.56.4Zm.45,1.33.5-.5-.35-.63Zm.6,1.56L179.3,84l-.19.33Zm.26,1.29.34-.09.21-.24ZM173.19,60.7l-.06-.53-.27.35Zm2.88,11,.27-.34-.19-2L176,70Zm1.77,5.87.59-.16-.2-1.4.45-1-.44.39-.05-.53.27-.35-.59.16-.09-.33.37-.29-.06-.89-.51.78Zm.27,1,.36-.36-.41-.16Zm2,6.08.6-.8.23-2.15-.67.55.35.27-1,1.8Zm-4.56-16.53.12-1.21.37-.65-.81,1Zm3.89,14.72.59-.16L179.86,81l-.19.33Zm-.69-3.53.26-1.07.64.37.19-3.68-.6.8-.14,1.49.45.33-.82.67Zm-1.26-6,.27-.34-.34-.27Zm-.44-3,.85-.23-.12-1.78.22-.87-.47-1.06-.34,2.09-.19.32.5.5Zm2.75,9.5.21-1.24-.24.43Zm-7-27.93,0-.55-.53.41Zm2.44,7.68.25-2.78-.66.9.06.89-.61.44h.63Zm.15,2.23.58.11-.05-1.16ZM178.33,72l.09-.66-.06-.89-.35.73ZM177,66.3l.6-.16-.24-.21Zm0-2-.14-.51-.18.33Zm2.28,7.09.68.18-.4-.8Zm-1.85-9.2-.12-1.42-.55,1ZM178.7,67l.26-.71-.14-.51-.45.67Zm-2.37-11.78-.06-.53L176,55Zm-2.18-7.39.55-1-.59.16ZM176,54.6l.51-.77-.06-.9-.27.35v.36l-.2.6ZM175.82,52l.52-.77-.51.14Zm1.8,6.31.47-.58-.05-.89-.46.67Zm-2.48-11.83.32.18,0-1.16ZM178,56.05l-.07-1.26-.33.46Zm-.67-4.81.43.25-.45-1.33Z"/><path class="cls-1" d="M120.82,152.69l-10.46,3.86-29.25,8-3.3,1.5-3-1.53-1.94-2.79-1.33-4.13-.46-3.78.92-3.77,2.37-4.17,50.39-16.41,12.06-2.34,3.27-.9,12.73-2.72,5.72.18,2.33,2.1-1.84,3.24-.38,1.47.25.91-.19,3.57.3,1.09-1.84,5.39-1.73,2.23L153.87,145l-6.54,1.8Z"/></svg>
